<svg width="173" height="27" viewBox="0 0 173 27" fill="none" xmlns="http://www.w3.org/2000/svg">
<path d="M7.5 24.5L1 17.5L7.5 15L12 20L17.5 15L12 7.5V12.5L1 10L5.5 4.5" stroke="white" stroke-width="2" stroke-linecap="round" stroke-linejoin="round"/>
<path d="M35.262 21.176C33.7073 21.176 32.3067 20.8387 31.06 20.164C29.8133 19.4747 28.8307 18.5287 28.112 17.326C27.408 16.1233 27.056 14.7813 27.056 13.3C27.056 11.8187 27.408 10.4767 28.112 9.274C28.8307 8.07133 29.8133 7.13267 31.06 6.458C32.3067 5.76867 33.7073 5.424 35.262 5.424C36.802 5.424 38.1953 5.76867 39.442 6.458C40.6887 7.13267 41.664 8.07133 42.368 9.274C43.072 10.462 43.424 11.804 43.424 13.3C43.424 14.796 43.072 16.1453 42.368 17.348C41.664 18.536 40.6887 19.4747 39.442 20.164C38.1953 20.8387 36.802 21.176 35.262 21.176ZM35.262 19.218C36.3913 19.218 37.4033 18.9613 38.298 18.448C39.2073 17.9347 39.9187 17.2307 40.432 16.336C40.96 15.4267 41.224 14.4147 41.224 13.3C41.224 12.1853 40.96 11.1807 40.432 10.286C39.9187 9.37667 39.2073 8.66533 38.298 8.152C37.4033 7.63867 36.3913 7.382 35.262 7.382C34.1327 7.382 33.106 7.63867 32.182 8.152C31.2727 8.66533 30.554 9.37667 30.026 10.286C29.5127 11.1807 29.256 12.1853 29.256 13.3C29.256 14.4147 29.5127 15.4267 30.026 16.336C30.554 17.2307 31.2727 17.9347 32.182 18.448C33.106 18.9613 34.1327 19.218 35.262 19.218ZM52.7046 9.23C54.1859 9.23 55.3592 9.66267 56.2246 10.528C57.1046 11.3787 57.5446 12.6327 57.5446 14.29V21H55.4326V14.532C55.4326 13.4027 55.1612 12.552 54.6186 11.98C54.0759 11.408 53.2986 11.122 52.2866 11.122C51.1426 11.122 50.2406 11.4593 49.5806 12.134C48.9206 12.794 48.5906 13.7473 48.5906 14.994V21H46.4786V9.34H48.5026V11.1C48.9279 10.4987 49.4999 10.0367 50.2186 9.714C50.9519 9.39133 51.7806 9.23 52.7046 9.23ZM61.4532 4.676H63.5652V21H61.4532V4.676ZM67.5977 9.34H69.7097V21H67.5977V9.34ZM68.6537 7.096C68.243 7.096 67.8984 6.964 67.6197 6.7C67.3557 6.436 67.2237 6.11333 67.2237 5.732C67.2237 5.35067 67.3557 5.028 67.6197 4.764C67.8984 4.48533 68.243 4.346 68.6537 4.346C69.0644 4.346 69.4017 4.478 69.6657 4.742C69.9444 4.99133 70.0837 5.30667 70.0837 5.688C70.0837 6.084 69.9444 6.42133 69.6657 6.7C69.4017 6.964 69.0644 7.096 68.6537 7.096ZM79.9682 9.23C81.4496 9.23 82.6229 9.66267 83.4882 10.528C84.3682 11.3787 84.8082 12.6327 84.8082 14.29V21H82.6962V14.532C82.6962 13.4027 82.4249 12.552 81.8822 11.98C81.3396 11.408 80.5622 11.122 79.5502 11.122C78.4062 11.122 77.5042 11.4593 76.8442 12.134C76.1842 12.794 75.8542 13.7473 75.8542 14.994V21H73.7422V9.34H75.7662V11.1C76.1916 10.4987 76.7636 10.0367 77.4822 9.714C78.2156 9.39133 79.0442 9.23 79.9682 9.23ZM99.3193 15.236C99.3193 15.3973 99.3046 15.61 99.2753 15.874H89.8153C89.9473 16.9007 90.3946 17.7293 91.1573 18.36C91.9346 18.976 92.8953 19.284 94.0393 19.284C95.4326 19.284 96.5546 18.8147 97.4053 17.876L98.5713 19.24C98.0433 19.856 97.3833 20.3253 96.5913 20.648C95.814 20.9707 94.9413 21.132 93.9733 21.132C92.7413 21.132 91.6486 20.8827 90.6953 20.384C89.742 19.8707 89.0013 19.1593 88.4733 18.25C87.96 17.3407 87.7033 16.314 87.7033 15.17C87.7033 14.0407 87.9526 13.0213 88.4513 12.112C88.9646 11.2027 89.6613 10.4987 90.5413 10C91.436 9.48667 92.4406 9.23 93.5553 9.23C94.67 9.23 95.66 9.48667 96.5253 10C97.4053 10.4987 98.0873 11.2027 98.5713 12.112C99.07 13.0213 99.3193 14.0627 99.3193 15.236ZM93.5553 11.012C92.5433 11.012 91.6926 11.32 91.0033 11.936C90.3286 12.552 89.9326 13.3587 89.8153 14.356H97.2953C97.178 13.3733 96.7746 12.574 96.0853 11.958C95.4106 11.3273 94.5673 11.012 93.5553 11.012ZM119.138 13.212H121.25V19.218C120.488 19.8487 119.6 20.3327 118.588 20.67C117.576 21.0073 116.52 21.176 115.42 21.176C113.866 21.176 112.465 20.8387 111.218 20.164C109.972 19.4747 108.989 18.536 108.27 17.348C107.566 16.1453 107.214 14.796 107.214 13.3C107.214 11.804 107.566 10.4547 108.27 9.252C108.989 8.04933 109.972 7.11067 111.218 6.436C112.48 5.76133 113.895 5.424 115.464 5.424C116.696 5.424 117.811 5.62933 118.808 6.04C119.82 6.436 120.678 7.02267 121.382 7.8L120.018 9.164C118.786 7.976 117.298 7.382 115.552 7.382C114.379 7.382 113.323 7.63867 112.384 8.152C111.46 8.65067 110.734 9.35467 110.206 10.264C109.678 11.1587 109.414 12.1707 109.414 13.3C109.414 14.4147 109.678 15.4267 110.206 16.336C110.734 17.2307 111.46 17.9347 112.384 18.448C113.323 18.9613 114.372 19.218 115.53 19.218C116.909 19.218 118.112 18.888 119.138 18.228V13.212ZM136.022 9.34V21H134.02V19.24C133.595 19.8413 133.03 20.3107 132.326 20.648C131.637 20.9707 130.882 21.132 130.06 21.132C128.506 21.132 127.281 20.7067 126.386 19.856C125.492 18.9907 125.044 17.722 125.044 16.05V9.34H127.156V15.808C127.156 16.9373 127.428 17.7953 127.97 18.382C128.513 18.954 129.29 19.24 130.302 19.24C131.417 19.24 132.297 18.9027 132.942 18.228C133.588 17.5533 133.91 16.6 133.91 15.368V9.34H136.022ZM140.043 9.34H142.155V21H140.043V9.34ZM141.099 7.096C140.688 7.096 140.344 6.964 140.065 6.7C139.801 6.436 139.669 6.11333 139.669 5.732C139.669 5.35067 139.801 5.028 140.065 4.764C140.344 4.48533 140.688 4.346 141.099 4.346C141.51 4.346 141.847 4.478 142.111 4.742C142.39 4.99133 142.529 5.30667 142.529 5.688C142.529 6.084 142.39 6.42133 142.111 6.7C141.847 6.964 141.51 7.096 141.099 7.096ZM157.188 4.676V21H155.164V19.152C154.694 19.7973 154.1 20.2887 153.382 20.626C152.663 20.9633 151.871 21.132 151.006 21.132C149.876 21.132 148.864 20.8827 147.97 20.384C147.075 19.8853 146.371 19.1887 145.858 18.294C145.359 17.3847 145.11 16.3433 145.11 15.17C145.11 13.9967 145.359 12.9627 145.858 12.068C146.371 11.1733 147.075 10.4767 147.97 9.978C148.864 9.47933 149.876 9.23 151.006 9.23C151.842 9.23 152.612 9.39133 153.316 9.714C154.02 10.022 154.606 10.484 155.076 11.1V4.676H157.188ZM151.182 19.284C151.915 19.284 152.582 19.1153 153.184 18.778C153.785 18.426 154.254 17.942 154.592 17.326C154.929 16.6953 155.098 15.9767 155.098 15.17C155.098 14.3633 154.929 13.652 154.592 13.036C154.254 12.4053 153.785 11.9213 153.184 11.584C152.582 11.2467 151.915 11.078 151.182 11.078C150.434 11.078 149.759 11.2467 149.158 11.584C148.571 11.9213 148.102 12.4053 147.75 13.036C147.412 13.652 147.244 14.3633 147.244 15.17C147.244 15.9767 147.412 16.6953 147.75 17.326C148.102 17.942 148.571 18.426 149.158 18.778C149.759 19.1153 150.434 19.284 151.182 19.284ZM171.722 15.236C171.722 15.3973 171.707 15.61 171.678 15.874H162.218C162.35 16.9007 162.797 17.7293 163.56 18.36C164.337 18.976 165.298 19.284 166.442 19.284C167.835 19.284 168.957 18.8147 169.808 17.876L170.974 19.24C170.446 19.856 169.786 20.3253 168.994 20.648C168.216 20.9707 167.344 21.132 166.376 21.132C165.144 21.132 164.051 20.8827 163.098 20.384C162.144 19.8707 161.404 19.1593 160.876 18.25C160.362 17.3407 160.106 16.314 160.106 15.17C160.106 14.0407 160.355 13.0213 160.854 12.112C161.367 11.2027 162.064 10.4987 162.944 10C163.838 9.48667 164.843 9.23 165.958 9.23C167.072 9.23 168.062 9.48667 168.928 10C169.808 10.4987 170.49 11.2027 170.974 12.112C171.472 13.0213 171.722 14.0627 171.722 15.236ZM165.958 11.012C164.946 11.012 164.095 11.32 163.406 11.936C162.731 12.552 162.335 13.3587 162.218 14.356H169.698C169.58 13.3733 169.177 12.574 168.488 11.958C167.813 11.3273 166.97 11.012 165.958 11.012Z" fill="white"/>
</svg>
